<svg viewBox="0 0 512 512" xmlns="http://www.w3.org/2000/svg" fill-rule="evenodd" clip-rule="evenodd" stroke-linejoin="round" stroke-miterlimit="2"><path d="M512.002 256c0 27.384-2.208 54.224-6.414 80.393-13.916 86.648-82.553 155.285-169.201 169.2a506.136 506.136 0 01-80.394 6.4 506.085 506.085 0 01-80.378-6.4c-86.664-13.915-155.3-82.552-169.217-169.2A508.019 508.019 0 010 255.999a508.17 508.17 0 016.398-80.393C20.314 88.958 88.951 20.32 175.615 6.405A506.085 506.085 0 01255.993.006c27.384 0 54.225 2.192 80.394 6.399 86.648 13.916 155.285 82.553 169.2 169.2A506.283 506.283 0 01512.003 256z" fill="#0b5cff" fill-rule="nonzero"/><path d="M32.009 17c0 1.712-.138 3.39-.401 5.026-.87 5.417-5.161 9.708-10.578 10.578-1.636.263-3.314.4-5.026.4a31.64 31.64 0 01-5.025-.4C5.561 31.734 1.27 27.443.4 22.026a31.76 31.76 0 010-10.052c.87-5.417 5.161-9.708 10.579-10.578a31.64 31.64 0 015.025-.4c1.712 0 3.39.137 5.026.4 5.417.87 9.708 5.161 10.578 10.578.263 1.636.401 3.315.401 5.026z" fill="url(#prefix___Radial1)" fill-rule="nonzero" transform="translate(0 -15.925) scale(15.99556)"/><path d="M32.009 17c0 1.711-.138 3.39-.401 5.026-.87 5.417-5.161 9.708-10.578 10.578-1.636.263-3.314.4-5.026.4a31.64 31.64 0 01-5.025-.4C5.561 31.734 1.27 27.443.4 22.026a31.77 31.77 0 010-10.052c.87-5.417 5.161-9.708 10.579-10.578a31.64 31.64 0 015.025-.4c1.712 0 3.39.137 5.026.4 5.417.87 9.708 5.161 10.578 10.578.263 1.636.401 3.315.401 5.026z" fill="url(#prefix___Radial2)" fill-rule="nonzero" transform="translate(0 -15.925) scale(15.99556)"/><path d="M310.858 319.997c0 15.148-12.285 27.433-27.433 27.433H164.578c-30.311 0-54.864-24.57-54.864-54.865V192.001c0-15.148 12.284-27.432 27.432-27.432h118.847c30.296 0 54.865 24.569 54.865 54.864v100.564zm69.484-138.969l-40.228 30.168a27.424 27.424 0 00-10.973 21.946v45.715a27.424 27.424 0 0010.973 21.946l40.228 30.167c9.038 6.783 21.946.336 21.946-10.973V192.001c0-11.309-12.908-17.755-21.946-10.973z" fill="#fff" fill-rule="nonzero"/><defs><radialGradient id="prefix___Radial1" cx="0" cy="0" r="1" gradientUnits="userSpaceOnUse" gradientTransform="matrix(21.5781 0 0 18.0346 16.004 15.14)"><stop offset="0" stop-color="#0b5cff" stop-opacity="0"/><stop offset=".82" stop-color="#0b5cff" stop-opacity="0"/><stop offset=".98" stop-color="#003cb3"/><stop offset="1" stop-color="#003cb3"/></radialGradient><radialGradient id="prefix___Radial2" cx="0" cy="0" r="1" gradientUnits="userSpaceOnUse" gradientTransform="matrix(21.5704 0 0 18.0281 16.004 18.853)"><stop offset="0" stop-color="#0b5cff" stop-opacity="0"/><stop offset=".8" stop-color="#0b5cff" stop-opacity="0"/><stop offset="1" stop-color="#71a5f1"/></radialGradient></defs></svg>